# xmcd CD database file
# Copyright (C) 1997 Ti Kan
# 
# Track frame offsets:
#     150
#     9862
#     19212
#     27930
#     39197
#     48550
#     57360
#     67162
# 
# Disc length: 1034 seconds
# 
# Revision: 1
# Processed by: cddbd v1.4b41PL1 Copyright (c) Steve Scherf et al.
# Submitted via: DiscPlay 4.0.4
# 
DISCID=61040808
DTITLE=Loretta Lynn - Christmas Withoout Daddy
DYEAR=1900
DGENRE=
TTITLE0=Country Christmas
TTITLE1=Santa Claus Is Comin' To Town
TTITLE2=Silver Bells
TTITLE3=Blue Christmas
TTITLE4=White Christmas
TTITLE5=Frosty The Snowman
TTITLE6=Christmas Without Daddy
TTITLE7=Gift Of The Blues
EXTD=
EXTT0=
EXTT1=
EXTT2=
EXTT3=
EXTT4=
EXTT5=
EXTT6=
EXTT7=
PLAYORDER=
